<?xml version="1.0" encoding="UTF-8"?>
<svg id="Livello_2" data-name="Livello 2" xmlns="http://www.w3.org/2000/svg" viewBox="0 0 443.94 273.73">
  <defs>
    <style>
      .cls-1 {
        stroke-width: 0px;
      }
    </style>
  </defs>
  <path class="cls-1" d="m228.32,211.38c-72.88,0-127.53-15.9-165.59-96.39-1.47-3.11-6.2-1.29-5.19,2,22.5,72.95,90.45,125.95,170.78,125.95s148.28-53.01,170.78-125.95c1.01-3.29-3.84-5.16-5.19-2-33.44,78.56-92.72,96.39-165.59,96.39Z"/>
  <path class="cls-1" d="m228.32,158.38c-72.88,0-127.53-15.9-165.59-96.39-1.47-3.11-6.2-1.29-5.19,2,22.5,72.95,90.45,125.95,170.78,125.95s148.28-53.01,170.78-125.95c1.01-3.29-3.84-5.16-5.19-2-33.44,78.56-92.72,96.39-165.59,96.39Z"/>
</svg>